<svg width="1440" height="1440" viewBox="0 0 1080 1080" xmlns="http://www.w3.org/2000/svg"><g fill="#020202"><path d="M648.44 251.19c5.78-3.22 5.15 3.66 2.76 7.05-3.95 6.35 6.51 9.25 5.4 15.75 2.19 9.69-11.13 17.88-4.56 27.07 4.35 5.77 4.17 13.68.98 19.95-9.24 19.88-15.36 41.12-25.37 60.66-3.03 7.64-10.21 20.46.3 25.3 6.1 3.31.68 13.77-5.67 11.08-9.62-1.93-14.92-11.86-13.74-21.15-33.4 77.53-64.59 156.04-98.11 233.5-7.96 6.9-17.12 15.86-26.94 18.51-1.47-12.94-6.46-29.3 1.48-41.95 47.1-111.6 92.98-223.75 141.08-334.93 3.65-12.15 19.56-9 22.39-20.84zM821.4 494.35c3.48-1.39 9.68 1.58 6.68 5.71-5.23 4.06-16.48-3.95-18.47 5.55-4.49 18.67-10.2 37.32-12.54 56.34 5.24-.73 8.93-7.13 13.4-7.42-2.07 5.72-16.35 18.1-21.17 9.09 1.9-16.94 7.25-33.44 11.3-50 2.41-9.8 10.46-18.26 20.8-19.27zM847.39 494.36c3.33-.91 7.95 1.3 6.62 5.32-5.09 4.71-14.49-3.11-18.09 4.27-3.64 9.23-5 19.23-6.99 28.91 5.64-5 15.17-14.54 22.28-6.97 4.29 12.13-11.28 18.44-21.03 18.24 14.44 6.98 14 25.68 24.67 35.95 3.63 3.72 14.23 3.64 11.75-3.61-1.77-5.45 6.84-5.83 6.38-.41-1.03 10.53-15.36 11.5-22.47 6.47-12.72-9.23-12.97-27.28-23.73-38.03-5.03 4.66-.06 24.96-12.84 21.42 3.44-17.36 8.06-34.52 12.24-51.73 2.26-10.16 10.76-18.55 21.21-19.83m-7.98 33.91c-4.9 3.2-12.2 6.95-12.32 13.49 6.63.12 16.52-.86 18.15-8.74 1.19-3.65-2.51-6.73-5.83-4.75zM706.51 501.43c6.17-1.94 6.54 8.07 1.07 9.06-5.78 1.45-6.09-7.94-1.07-9.06z"/><path d="M609.58 503.52c.4-.1 1.21-.31 1.61-.41-3.28 19.59-5.16 39.38-7.73 59.06 1.57 3.73 10.45-.62 10.71 3.91-6.6 1.56-13.54-.69-20.29-.14 1.2-6.01 3.22-11.89 3.68-18.04-6.04-.34-12.22-.69-18.2.35-9.74 10.38-17.37 32.38-34.92 28.33-5.57-9.49 9.98-2.65 13.56-7.69 17.76-18.08 28.57-41.61 44.97-60.85-8.24 1.43-20.68.19-23.76 10.15.31 3.75 2.87 11.54-3.89 9.63-3.86-6.36.3-14.81 6.33-18.19 8.51-4.99 18.82-3.17 27.93-6.11m-8.01 12.13c-7.21 8.82-13.38 18.49-19.39 28.15 5.14.03 10.3.25 15.42-.22 1.46-8.8 3.98-21.36 3.97-27.93zM674.36 512.48c2.05 3.43-7.57 16.9 3.66 13.82 9.82.97-2.26 5.66-6.79 3.84-3.23 9.23-5.74 18.95-7.16 28.63 5.7 5.83 12.85-9.01 16.99-3.8-6.68 4.9-14.48 13.87-23.29 11.38-4.22-11.74 4.53-24.12 5.26-36.16-2.72-.77-8.59 1.6-7.43-3.06-16.06 3.5-21.45 20.65-23.54 34.9.11 4.89-4.67 4.29-8.21 3.9 2.11-12.43 7-24.36 8.14-36.98-4.52-.12-6.81 7.39-11 5.02 4.89-5.44 11.44-10.89 19.1-11 .23 3.83-.88 7.55-1.26 11.33 5.77-4.41 9.25-14.32 17.75-13.33.77 4 3.69 7.09 7.89 4.7 1.15-5.98 2.49-12.76 9.89-13.19zM730.43 513.33c5.45-2.18.44 6.44.43 9.46-3.73 7.74 11.63-.8 9.09 7.02-16.47-4.14-13.48 17.01-17.42 27.47 2.61 9.38 13.47-7.66 16.61-2.28-6.42 5.34-13.81 12.7-22.75 11.92-4.61-11.89 3.79-24.7 5.25-36.83-4.26 1.47-12.04-2.26-4.51-3.7 9.9 2.29 4.22-12.75 13.3-13.06zM779.72 522.69c.61-.19 1.83-.56 2.44-.74-2.5 12.77-8.41 25.17-8.4 38.28 2.98 1.61 7.37-5.16 10.59-4.55-1.56 8.53-25.5 18.59-17.69 2.07-3.73 2.56-17.52 16.66-22.48 4.86-3.33-20.25 15.13-40.33 35.54-39.92m-16.32 7.75c-8.9 4.24-12 15.4-12.38 24.52-.54 4.13 4.11 7.1 7.57 4.73 10.82-5.54 11.01-19.29 14.13-29.57-3.09-.38-6.31-.58-9.32.32zM699.4 523.36c2.21-.9 6.62-.72 5.79 2.7-1.85 11.86-7.98 22.93-8.21 35.07 4.3.98 8.67-8.56 10.84-4.1-4.42 4.65-11.3 12.34-17.96 9.16-2.44-12.61 5.59-24.81 7.18-37.28-4.34-.77-8.45 8.51-11.02 4.12 3.27-4.48 8.14-7.89 13.38-9.67z"/></g><g fill="#0c9bc1"><path d="M489.81 264.94c30.98-3.42 63.06-2.92 93.24 5.87 4.3 1.19 2.4 6.41.91 9.18-4.64 8.8-7.74 18.45-13.19 26.78-80.01-21.85-172.45 15.23-212.52 88.6-2.48 4.41-4.15 9.33-7.42 13.25-11.95-3.41-23.41-8.99-33.31-16.53 30.23-68.49 98.59-116.9 172.29-127.15zM655.55 354.51c3.67-12.15 10.06-24.29 16.51-35.49 29.41 22.13 49.31 56.69 63 89.53 63.95-20.32 139.52 10.27 170.13 70.25 34.86 62.4 11.68 148.79-50.1 184.76-12.5-9.23-27.78-13.17-41.35-20.43 41.11-16.05 73.25-57.79 68.98-103.11.91-68.15-78.51-118.56-140.61-92.99-10.66 3.04-20.37 8.6-30.85 11.93-9.86-38.47-26.73-76.54-55.71-104.45zM482.19 403.16c5.71-12.77 24.12-22.28 36.45-12.76 8.27 6.32 9.35 18.26 4.85 27.16-8.96 20.52-16.22 41.78-25.48 62.15-11.49-9.44-26.56-12.57-38.88-20.52 7.1-18.89 15.34-37.37 23.06-56.03z"/></g><g fill="#186182"><path d="M306.6 422.54c2.39-10.57 6.94-20.43 10.92-30.45 9.9 7.54 21.36 13.12 33.31 16.53-8.89 18.94-13.91 39.41-16.17 60.12-18.02-3.15-36.34-4.92-54.66-5.1-50.08-.09-96.13 45.67-92.33 96.36-3.45 58.03 60.87 108.69 116.18 89.78 19.5-46.9 36.66-95.11 57.43-141.55 9.78-18.61 41.75-6.12 35.33 14.5-19.89 51.03-38.87 102.43-59.88 153.05-1.11 2.94-2.65 6.11-6.01 6.9-22.49 8.1-47.08 10.69-70.71 7.05-51.44-7.78-96.13-48.76-107.01-99.82-7.57-28.94-3.92-60.43 8.58-87.43 22.55-50.37 79.54-82.88 134.39-75.08 4.29.79 10.23.88 10.63-4.86zM459.13 459.19c12.32 7.95 27.39 11.08 38.88 20.52-23.52 58.39-49.25 116.35-70.95 175.22 107.86 2.47 215.97.94 323.95 1.39 21.63.06 42.84-4.93 62.73-13.19 13.57 7.26 28.85 11.2 41.35 20.43-30.53 19.2-65.85 30.37-102.09 29.79-130.23-.17-260.46.26-390.69.38 32.57-78.01 64.6-156.35 96.82-234.54z"/></g></svg>