<svg width="1080pt" height="1080pt" viewBox="0 0 1080 1080" version="1.1"
    xmlns="http://www.w3.org/2000/svg">
    <g fill="#020202">
        <path d="M 648.44 251.19 C 654.22 247.97 653.59 254.85 651.20 258.24 C 647.25 264.59 657.71 267.49 656.60 273.99 C 658.79 283.68 645.47 291.87 652.04 301.06 C 656.39 306.83 656.21 314.74 653.02 321.01 C 643.78 340.89 637.66 362.13 627.65 381.67 C 624.62 389.31 617.44 402.13 627.95 406.97 C 634.05 410.28 628.63 420.74 622.28 418.05 C 612.66 416.12 607.36 406.19 608.54 396.90 C 575.14 474.43 543.95 552.94 510.43 630.40 C 502.47 637.30 493.31 646.26 483.49 648.91 C 482.02 635.97 477.03 619.61 484.97 606.96 C 532.07 495.36 577.95 383.21 626.05 272.03 C 629.70 259.88 645.61 263.03 648.44 251.19 Z" />
        <path d="M 821.40 494.35 C 824.88 492.96 831.08 495.93 828.08 500.06 C 822.85 504.12 811.60 496.11 809.61 505.61 C 805.12 524.28 799.41 542.93 797.07 561.95 C 802.31 561.22 806.00 554.82 810.47 554.53 C 808.40 560.25 794.12 572.63 789.30 563.62 C 791.20 546.68 796.55 530.18 800.60 513.62 C 803.01 503.82 811.06 495.36 821.40 494.35 Z" />
        <path d="M 847.39 494.36 C 850.72 493.45 855.34 495.66 854.01 499.68 C 848.92 504.39 839.52 496.57 835.92 503.95 C 832.28 513.18 830.92 523.18 828.93 532.86 C 834.57 527.86 844.10 518.32 851.21 525.89 C 855.50 538.02 839.93 544.33 830.18 544.13 C 844.62 551.11 844.18 569.81 854.85 580.08 C 858.48 583.80 869.08 583.72 866.60 576.47 C 864.83 571.02 873.44 570.64 872.98 576.06 C 871.95 586.59 857.62 587.56 850.51 582.53 C 837.79 573.30 837.54 555.25 826.78 544.50 C 821.75 549.16 826.72 569.46 813.94 565.92 C 817.38 548.56 822.00 531.40 826.18 514.19 C 828.44 504.03 836.94 495.64 847.39 494.36 M 839.41 528.27 C 834.51 531.47 827.21 535.22 827.09 541.76 C 833.72 541.88 843.61 540.90 845.24 533.02 C 846.43 529.37 842.73 526.29 839.41 528.27 Z" />
        <path d="M 706.51 501.43 C 712.68 499.49 713.05 509.50 707.58 510.49 C 701.80 511.94 701.49 502.55 706.51 501.43 Z" />
        <path d="M 609.58 503.52 C 609.98 503.42 610.79 503.21 611.19 503.11 C 607.91 522.70 606.03 542.49 603.46 562.17 C 605.03 565.90 613.91 561.55 614.17 566.08 C 607.57 567.64 600.63 565.39 593.88 565.94 C 595.08 559.93 597.10 554.05 597.56 547.90 C 591.52 547.56 585.34 547.21 579.36 548.25 C 569.62 558.63 561.99 580.63 544.44 576.58 C 538.87 567.09 554.42 573.93 558.00 568.89 C 575.76 550.81 586.57 527.28 602.97 508.04 C 594.73 509.47 582.29 508.23 579.21 518.19 C 579.52 521.94 582.08 529.73 575.32 527.82 C 571.46 521.46 575.62 513.01 581.65 509.63 C 590.16 504.64 600.47 506.46 609.58 503.52 M 601.57 515.65 C 594.36 524.47 588.19 534.14 582.18 543.80 C 587.32 543.83 592.48 544.05 597.60 543.58 C 599.06 534.78 601.58 522.22 601.57 515.65 Z" />
        <path d="M 674.36 512.48 C 676.41 515.91 666.79 529.38 678.02 526.30 C 687.84 527.27 675.76 531.96 671.23 530.14 C 668.00 539.37 665.49 549.09 664.07 558.77 C 669.77 564.60 676.92 549.76 681.06 554.97 C 674.38 559.87 666.58 568.84 657.77 566.35 C 653.55 554.61 662.30 542.23 663.03 530.19 C 660.31 529.42 654.44 531.79 655.60 527.13 C 639.54 530.63 634.15 547.78 632.06 562.03 C 632.17 566.92 627.39 566.32 623.85 565.93 C 625.96 553.50 630.85 541.57 631.99 528.95 C 627.47 528.83 625.18 536.34 620.99 533.97 C 625.88 528.53 632.43 523.08 640.09 522.97 C 640.32 526.80 639.21 530.52 638.83 534.30 C 644.60 529.89 648.08 519.98 656.58 520.97 C 657.35 524.97 660.27 528.06 664.47 525.67 C 665.62 519.69 666.96 512.91 674.36 512.48 Z" />
        <path d="M 730.43 513.33 C 735.88 511.15 730.87 519.77 730.86 522.79 C 727.13 530.53 742.49 521.99 739.95 529.81 C 723.48 525.67 726.47 546.82 722.53 557.28 C 725.14 566.66 736.00 549.62 739.14 555.00 C 732.72 560.34 725.33 567.70 716.39 566.92 C 711.78 555.03 720.18 542.22 721.64 530.09 C 717.38 531.56 709.60 527.83 717.13 526.39 C 727.03 528.68 721.35 513.64 730.43 513.33 Z" />
        <path d="M 779.72 522.69 C 780.33 522.50 781.55 522.13 782.16 521.95 C 779.66 534.72 773.75 547.12 773.76 560.23 C 776.74 561.84 781.13 555.07 784.35 555.68 C 782.79 564.21 758.85 574.27 766.66 557.75 C 762.93 560.31 749.14 574.41 744.18 562.61 C 740.85 542.36 759.31 522.28 779.72 522.69 M 763.40 530.44 C 754.50 534.68 751.40 545.84 751.02 554.96 C 750.48 559.09 755.13 562.06 758.59 559.69 C 769.41 554.15 769.60 540.40 772.72 530.12 C 769.63 529.74 766.41 529.54 763.40 530.44 Z" />
        <path d="M 699.40 523.36 C 701.61 522.46 706.02 522.64 705.19 526.06 C 703.34 537.92 697.21 548.99 696.98 561.13 C 701.28 562.11 705.65 552.57 707.82 557.03 C 703.40 561.68 696.52 569.37 689.86 566.19 C 687.42 553.58 695.45 541.38 697.04 528.91 C 692.70 528.14 688.59 537.42 686.02 533.03 C 689.29 528.55 694.16 525.14 699.40 523.36 Z" />
    </g>
    <g fill="#0c9bc1">
        <path d="M 489.81 264.94 C 520.79 261.52 552.87 262.02 583.05 270.81 C 587.35 272.00 585.45 277.22 583.96 279.99 C 579.32 288.79 576.22 298.44 570.77 306.77 C 490.76 284.92 398.32 322.00 358.25 395.37 C 355.77 399.78 354.10 404.70 350.83 408.62 C 338.88 405.21 327.42 399.63 317.52 392.09 C 347.75 323.60 416.11 275.19 489.81 264.94 Z" />
        <path d="M 655.55 354.51 C 659.22 342.36 665.61 330.22 672.06 319.02 C 701.47 341.15 721.37 375.71 735.06 408.55 C 799.01 388.23 874.58 418.82 905.19 478.80 C 940.05 541.20 916.87 627.59 855.09 663.56 C 842.59 654.33 827.31 650.39 813.74 643.13 C 854.85 627.08 886.99 585.34 882.72 540.02 C 883.63 471.87 804.21 421.46 742.11 447.03 C 731.45 450.07 721.74 455.63 711.26 458.96 C 701.40 420.49 684.53 382.42 655.55 354.51 Z" />
        <path d="M 482.19 403.16 C 487.90 390.39 506.31 380.88 518.64 390.40 C 526.91 396.72 527.99 408.66 523.49 417.56 C 514.53 438.08 507.27 459.34 498.01 479.71 C 486.52 470.27 471.45 467.14 459.13 459.19 C 466.23 440.30 474.47 421.82 482.19 403.16 Z" />
    </g>
    <g fill="#186182">
        <path d="M 306.60 422.54 C 308.99 411.97 313.54 402.11 317.52 392.09 C 327.42 399.63 338.88 405.21 350.83 408.62 C 341.94 427.56 336.92 448.03 334.66 468.74 C 316.64 465.59 298.32 463.82 280.00 463.64 C 229.92 463.55 183.87 509.31 187.67 560.00 C 184.22 618.03 248.54 668.69 303.85 649.78 C 323.35 602.88 340.51 554.67 361.28 508.23 C 371.06 489.62 403.03 502.11 396.61 522.73 C 376.72 573.76 357.74 625.16 336.73 675.78 C 335.62 678.72 334.08 681.89 330.72 682.68 C 308.23 690.78 283.64 693.37 260.01 689.73 C 208.57 681.95 163.88 640.97 153.00 589.91 C 145.43 560.97 149.08 529.48 161.58 502.48 C 184.13 452.11 241.12 419.60 295.97 427.40 C 300.26 428.19 306.20 428.28 306.60 422.54 Z" />
        <path d="M 459.13 459.19 C 471.45 467.14 486.52 470.27 498.01 479.71 C 474.49 538.10 448.76 596.06 427.06 654.93 C 534.92 657.40 643.03 655.87 751.01 656.32 C 772.64 656.38 793.85 651.39 813.74 643.13 C 827.31 650.39 842.59 654.33 855.09 663.56 C 824.56 682.76 789.24 693.93 753.00 693.35 C 622.77 693.18 492.54 693.61 362.31 693.73 C 394.88 615.72 426.91 537.38 459.13 459.19 Z" />
    </g>
</svg>
